<?xml version="1.0" encoding="UTF-8"?>
<svg id="Layer_1" xmlns="http://www.w3.org/2000/svg" baseProfile="tiny" version="1.2" viewBox="0 0 640 640">
  <!-- Generator: Adobe Illustrator 29.8.4, SVG Export Plug-In . SVG Version: 2.1.1 Build 6)  -->
  <rect width="640" height="640" rx="72.2" ry="72.2" fill="#222155"/>
  <circle cx="306.8" cy="49.5" r="21" fill="#da7e36"/>
  <circle cx="358.5" cy="74.3" r="19.7" fill="#dc8433"/>
  <circle cx="406.6" cy="101.5" r="20.3" fill="#db7f33"/>
  <circle cx="456.7" cy="130.1" r="20.3" fill="#db8133"/>
  <circle cx="577.5" cy="189.3" r="10" fill="#d97835"/>
  <circle cx="550.8" cy="304.6" r="20.3" fill="#db8133"/>
  <circle cx="550.6" cy="245.7" r="20.3" fill="#db8134"/>
  <circle cx="550.8" cy="362.6" r="20.3" fill="#db8133"/>
  <circle cx="550.8" cy="420.7" r="20.3" fill="#db8133"/>
  <circle cx="498.4" cy="139.8" r="9.5" fill="#dc8533"/>
  <circle cx="546.9" cy="465.5" r="9.5" fill="#dc8433"/>
  <circle cx="505.8" cy="482.2" r="20.3" fill="#e7a830"/>
  <circle cx="456.6" cy="511" r="20.1" fill="#b6a13f"/>
  <circle cx="406.2" cy="540.6" r="20.6" fill="#689766"/>
  <circle cx="356.1" cy="568.6" r="20.6" fill="#2b8376"/>
  <circle cx="305.1" cy="592.8" r="20.9" fill="#28777d"/>
  <circle cx="253.9" cy="568.4" r="20.2" fill="#277489"/>
  <circle cx="203.6" cy="540.7" r="20.5" fill="#27788b"/>
  <circle cx="153.7" cy="510.9" r="20" fill="#267498"/>
  <circle cx="104.8" cy="482.9" r="20.2" fill="#24789e"/>
  <circle cx="55.6" cy="420.3" r="20.7" fill="#2d588c"/>
  <circle cx="55.6" cy="362.9" r="20.7" fill="#2c5a94"/>
  <circle cx="55.6" cy="304" r="20.7" fill="#2c5a97"/>
  <circle cx="55.6" cy="246.1" r="20.7" fill="#2b5e98"/>
  <circle cx="55.6" cy="187.6" r="20.7" fill="#2b5f9a"/>
  <circle cx="104.9" cy="158" r="20.7" fill="#26749c"/>
  <circle cx="254.1" cy="73.7" r="20.2" fill="#b09e45"/>
  <circle cx="203.5" cy="101.5" r="20.4" fill="#419174"/>
  <circle cx="153.6" cy="129.4" r="20.1" fill="#277e88"/>
  <circle cx="65.4" cy="465.7" r="9.5" fill="#2e558d"/>
  <path d="M268.8,353.7l25.2-21.5-124.2-81.1s-9.9-9.6-16.9-3.6c-7,6-.3,13.9-.3,13.9l92.7,120.4,47.1,56.2s10.6,12.3,20.9,12,21.2-13.3,21.2-13.3L605.9,108s5.2-4.9-2-10.3c-5.3-4-15.2,6.6-15.2,6.6l-272.1,224.4-35.3,37.5-12.5-12.6Z" fill="#e7a830"/>
</svg>